<svg xmlns="http://www.w3.org/2000/svg" xmlns:xlink="http://www.w3.org/1999/xlink" width="1920" zoomAndPan="magnify" viewBox="0 0 1440 809.999993" height="1080" preserveAspectRatio="xMidYMid meet" version="1.0"><defs><clipPath id="2c5c4a39a5"><path d="M 450 262 L 990 262 L 990 546.828125 L 450 546.828125 Z M 450 262 " clip-rule="nonzero"/></clipPath><clipPath id="046302b826"><path d="M 714 277.050781 C 718.5 277.800781 718.574219 278.625 718.425781 279.074219 C 718.351562 279.449219 718.050781 279.75 717.449219 279.976562 C 714.75 281.101562 702.375 280.199219 694.648438 280.875 C 686.476562 281.625 678.601562 282.449219 669.75 284.25 C 659.175781 286.5 647.699219 289.726562 635.550781 293.851562 C 621.300781 298.800781 604.800781 305.398438 589.648438 312.601562 C 573.976562 319.949219 557.773438 328.5 543.074219 337.726562 C 528.824219 346.648438 514.726562 356.550781 502.648438 366.898438 C 491.476562 376.5 480.675781 386.699219 472.648438 397.273438 C 465.601562 406.574219 459.226562 416.023438 456.226562 426.300781 C 453.300781 436.125 452.023438 447.226562 454.425781 457.425781 C 457.125 468.824219 464.625 481.125 473.699219 490.949219 C 483.976562 502.125 498.601562 511.800781 514.726562 519.300781 C 533.625 528.074219 557.851562 533.25 581.476562 537.375 C 607.5 541.800781 636.375 543.976562 664.574219 543.75 C 693.824219 543.601562 724.574219 540.523438 754.050781 535.726562 C 783.449219 531 814.199219 524.175781 841.125 515.101562 C 865.949219 506.773438 889.875 496.125 910.351562 484.425781 C 928.425781 474.074219 945.75 462.074219 958.574219 449.925781 C 969.074219 440.023438 979.273438 429.898438 983.550781 418.800781 C 987.375 409.050781 988.199219 397.800781 985.5 387.75 C 982.5 376.5 973.648438 365.324219 963.75 355.125 C 951.601562 342.523438 932.550781 330.75 915.148438 320.550781 C 897.074219 310.050781 876.601562 300.824219 857.023438 293.398438 C 838.125 286.125 818.550781 280.648438 799.648438 276.226562 C 781.800781 272.023438 763.800781 269.023438 746.925781 267.226562 C 731.550781 265.574219 715.875 264.675781 702.601562 265.125 C 691.648438 265.5 681.300781 266.699219 672.75 268.5 C 666 270 659.925781 272.175781 655.050781 274.199219 C 651.300781 275.773438 648.375 277.273438 645.449219 279.148438 C 642.75 280.949219 639.824219 285 638.101562 285.226562 C 637.273438 285.300781 636.300781 284.699219 636.074219 284.25 C 635.925781 283.800781 636.375 282.824219 636.75 282.523438 C 637.050781 282.300781 637.726562 282.226562 638.101562 282.449219 C 638.476562 282.601562 638.925781 283.125 639 283.5 C 639.074219 283.875 638.925781 284.550781 638.625 284.851562 C 638.324219 285.148438 637.648438 285.375 637.273438 285.300781 C 636.898438 285.226562 636.300781 284.773438 636.148438 284.398438 C 636 284.023438 636 283.574219 636.300781 282.976562 C 637.050781 281.476562 641.175781 278.398438 644.101562 276.523438 C 647.101562 274.5 650.175781 273 654.148438 271.351562 C 659.25 269.25 665.398438 267 672.375 265.574219 C 681.148438 263.699219 691.648438 262.5 702.75 262.125 C 716.175781 261.675781 731.925781 262.574219 747.375 264.226562 C 764.398438 266.101562 782.550781 269.175781 800.550781 273.375 C 819.523438 277.800781 839.25 283.351562 858.300781 290.625 C 878.023438 298.199219 898.648438 307.425781 916.875 318.148438 C 934.5 328.425781 953.851562 340.425781 966.226562 353.398438 C 976.351562 363.976562 985.351562 375.75 988.425781 387.601562 C 991.125 398.175781 990.074219 410.101562 986.023438 420.375 C 981.523438 431.851562 971.101562 442.199219 960.300781 452.398438 C 947.324219 464.699219 929.851562 476.699219 911.550781 487.199219 C 890.925781 498.898438 866.851562 509.625 841.875 518.023438 C 814.726562 527.175781 783.898438 533.925781 754.351562 538.726562 C 724.726562 543.523438 693.75 546.601562 664.351562 546.75 C 635.925781 546.898438 606.898438 544.800781 580.726562 540.226562 C 556.726562 536.101562 532.273438 530.773438 513.074219 521.773438 C 496.648438 514.050781 481.648438 504.074219 471.148438 492.523438 C 461.851562 482.25 454.199219 469.425781 451.5 457.5 C 449.023438 446.851562 450.449219 435.226562 453.601562 424.949219 C 456.75 414.375 463.273438 404.699219 470.550781 395.175781 C 478.648438 384.449219 489.601562 374.175781 500.925781 364.425781 C 513.074219 354 527.25 344.101562 541.648438 335.101562 C 556.425781 325.800781 572.773438 317.25 588.523438 309.824219 C 603.824219 302.625 620.324219 295.949219 634.800781 291 C 647.023438 286.800781 658.648438 283.5 669.300781 281.324219 C 678.300781 279.449219 687.226562 278.625 694.425781 277.949219 C 699.824219 277.351562 704.550781 277.199219 708.75 277.050781 C 711.976562 276.976562 715.949219 276.300781 717.449219 277.125 C 718.125 277.5 718.574219 278.25 718.574219 278.699219 C 718.5 279.226562 717.75 279.824219 717.074219 280.050781 C 716.101562 280.351562 713.699219 280.199219 713.023438 279.675781 C 712.648438 279.300781 712.5 278.476562 712.648438 278.023438 C 712.800781 277.574219 714.074219 277.050781 714.074219 277.050781 " clip-rule="nonzero"/></clipPath></defs><g clip-path="url(#2c5c4a39a5)"><g clip-path="url(#046302b826)"><path fill="#0571d3" d="M 448.5 259.125 L 991.6875 259.125 L 991.6875 549.824219 L 448.5 549.824219 Z M 448.5 259.125 " fill-opacity="1" fill-rule="nonzero"/></g></g></svg>